<svg width="966" height="945" viewBox="0 0 966 945" fill="none" xmlns="http://www.w3.org/2000/svg">
<g clip-path="url(#clip0_39_204)">
<g opacity="0.099">
<path d="M468.755 937.353L19.744 671.73C5.44901 663.683 -6.80399 650.5 7.12401 641.852L457.734 381.89C464.488 377.696 474.752 374.944 481.637 378.954L952.902 652.781C967.198 661.089 969.763 684.231 955.521 692.618L527.925 936.933C518.951 942.145 508.773 944.925 498.396 944.999C488.019 945.072 477.802 942.437 468.755 937.353Z" fill="#6862E6"/>
</g>
<path d="M471.799 815.279L24.9417 550.95C10.7146 542.942 -1.47863 529.822 12.3824 521.217L460.831 262.52C467.553 258.348 477.767 255.609 484.619 259.598L953.626 532.092C967.851 540.36 970.406 563.39 956.229 571.735L530.689 814.862C521.758 820.048 511.628 822.815 501.3 822.888C490.973 822.961 480.803 820.338 471.799 815.279Z" fill="#5B36A0"/>
<path d="M471.799 803.078L24.9417 538.749C10.7146 530.741 -1.47863 517.621 12.3824 509.016L460.831 250.319C467.553 246.147 477.767 243.408 484.619 247.397L953.626 519.891C967.851 528.158 970.406 551.189 956.229 559.534L530.689 802.661C521.758 807.847 511.628 810.614 501.3 810.687C490.973 810.76 480.803 808.137 471.799 803.078Z" fill="#6862E6"/>
<path style="mix-blend-mode:multiply" opacity="0.25" d="M508.643 454.325L420.468 504.687C420.468 504.687 556.298 587.651 584.072 599.335L634.855 526.309" fill="url(#paint0_linear_39_204)"/>
<path style="mix-blend-mode:multiply" opacity="0.25" d="M478.184 695.937L389.984 645.681L301.786 696.043C301.786 696.043 347.721 724.104 391.625 749.873C419.506 730.129 447.411 710.179 478.184 695.937Z" fill="url(#paint1_linear_39_204)"/>
<path style="mix-blend-mode:multiply" opacity="0.46" d="M288.159 385.575L232.216 417.524C232.216 417.524 236.957 446.814 264.734 458.498L337.975 411.552" fill="url(#paint2_linear_39_204)"/>
<path d="M315.543 417.524C334.178 417.524 349.285 406.875 349.285 393.739C349.285 380.603 334.178 369.954 315.543 369.954C296.908 369.954 281.801 380.603 281.801 393.739C281.801 406.875 296.908 417.524 315.543 417.524Z" fill="#68E1FD"/>
<path d="M315.517 390.061C329.475 390.061 340.79 385.425 340.79 379.707C340.79 373.988 329.475 369.353 315.517 369.353C301.559 369.353 290.243 373.988 290.243 379.707C290.243 385.425 301.559 390.061 315.517 390.061Z" fill="#974C26"/>
<path d="M314.603 362.441C314.603 357.772 314.449 353.105 314.083 348.437C313.979 347.219 313.867 346.011 313.745 344.811L313.485 342.438C313.485 341.733 313.119 339.829 313.119 340.012C312.962 339.057 312.797 338.109 312.624 337.17C309.869 321.323 303.718 306.261 294.594 293.014C291.161 301.192 289.449 309.99 289.564 318.859C289.564 321.469 289.774 324.076 289.981 326.529V328.068C290.19 329.318 290.424 330.675 290.685 331.822C291.678 336.579 293.011 341.26 294.671 345.828C296.164 350.033 297.986 354.114 300.118 358.035C302.417 362.447 304.912 366.754 307.595 370.945C309.53 374.003 311.554 377.003 313.666 379.943C314.292 374.127 314.579 368.283 314.603 362.441ZM301.342 309.94C301.476 309.339 301.476 308.717 301.342 308.116C301.985 308.775 302.62 309.454 303.244 310.149C302.618 309.971 301.966 309.901 301.316 309.94H301.342Z" fill="#999A1C"/>
<path d="M323.28 366.04C325.863 362.144 328.238 358.113 330.395 353.966C330.968 352.888 331.523 351.81 332.062 350.733L333.13 348.567L334.147 346.324L335.266 343.715C341.512 328.876 344.472 312.861 343.942 296.77C336.617 301.793 330.408 308.275 325.704 315.808C324.354 317.982 323.093 320.21 321.925 322.486L321.405 323.45L321.275 323.869C320.78 325.042 320.284 326.216 319.816 327.415C318.087 331.961 316.685 336.624 315.62 341.369C314.607 345.717 313.936 350.139 313.615 354.592C313.155 359.542 312.929 364.511 312.938 369.483C312.938 373.369 312.938 376.917 313.172 380.333C316.637 375.717 320.127 370.969 323.28 366.04ZM340.479 314.688C340.885 314.229 341.188 313.686 341.363 313.096C341.555 314.001 341.719 314.871 341.86 315.705C341.453 315.298 340.987 314.957 340.479 314.688Z" fill="#999A1C"/>
<path d="M323.099 377.673C325.751 376.353 328.358 374.944 330.915 373.448L332.868 372.248L334.147 371.439L335.398 370.552L336.856 369.483C345.003 363.496 351.759 355.817 356.658 346.975C351.096 347.332 345.668 348.833 340.713 351.383C339.279 352.115 337.898 352.922 336.517 353.756L335.919 354.122L335.709 354.305L333.781 355.739C331.379 357.635 329.115 359.701 327.008 361.92C325.06 363.941 323.273 366.112 321.665 368.413C319.856 370.973 318.119 373.582 316.454 376.238C315.274 378.186 314.153 380.17 313.092 382.186C316.454 380.776 319.816 379.318 323.099 377.673ZM348.946 355.505C349.315 355.389 349.653 355.192 349.936 354.929C349.745 355.487 349.538 356.034 349.31 356.572C349.242 356.208 349.119 355.857 348.946 355.529V355.505ZM314.603 362.441C314.603 357.772 314.449 353.105 314.083 348.437C313.979 347.219 313.867 346.011 313.745 344.811L313.485 342.438C313.485 341.733 313.119 339.829 313.119 340.012C312.962 339.057 312.797 338.109 312.624 337.17C309.869 321.323 303.718 306.261 294.594 293.014C291.161 301.192 289.449 309.99 289.564 318.859C289.564 321.469 289.774 324.076 289.981 326.529V328.068C290.19 329.318 290.424 330.675 290.685 331.822C291.678 336.579 293.011 341.26 294.671 345.828C296.164 350.033 297.986 354.114 300.118 358.035C302.417 362.447 304.912 366.754 307.595 370.945C309.53 374.003 311.554 377.003 313.666 379.943C314.292 374.127 314.579 368.283 314.603 362.441ZM301.342 309.94C301.476 309.339 301.476 308.717 301.342 308.116C301.985 308.775 302.62 309.454 303.244 310.149C302.618 309.971 301.966 309.901 301.316 309.94H301.342Z" fill="#999A1C"/>
<path d="M323.28 366.04C325.863 362.144 328.238 358.113 330.395 353.966C330.968 352.888 331.523 351.81 332.062 350.733L333.13 348.567L334.147 346.324L335.266 343.715C341.512 328.876 344.472 312.861 343.942 296.77C336.617 301.793 330.408 308.275 325.704 315.808C324.354 317.982 323.093 320.21 321.925 322.486L321.405 323.45L321.275 323.869C320.78 325.042 320.284 326.216 319.816 327.415C318.087 331.961 316.685 336.624 315.62 341.369C314.607 345.717 313.936 350.139 313.615 354.592C313.155 359.542 312.929 364.511 312.938 369.483C312.938 373.369 312.938 376.917 313.172 380.333C316.637 375.717 320.127 370.969 323.28 366.04ZM340.479 314.688C340.885 314.229 341.188 313.686 341.363 313.096C341.555 314.001 341.719 314.871 341.86 315.705C341.453 315.298 340.987 314.957 340.479 314.688Z" fill="#999A1C"/>
<path d="M323.099 377.673C325.751 376.353 328.358 374.944 330.915 373.448L332.868 372.248L334.147 371.439L335.398 370.552L336.856 369.483C345.003 363.496 351.759 355.817 356.658 346.975C351.096 347.332 345.668 348.833 340.713 351.383C339.279 352.115 337.898 352.922 336.517 353.756L335.919 354.122L335.709 354.305L333.781 355.739C331.379 357.635 329.115 359.701 327.008 361.92C325.06 363.941 323.273 366.112 321.665 368.413C319.856 370.973 318.119 373.582 316.454 376.238C315.274 378.186 314.153 380.17 313.092 382.185C316.454 380.776 319.816 379.318 323.099 377.673ZM348.946 355.505C349.315 355.389 349.653 355.192 349.936 354.929C349.745 355.487 349.538 356.034 349.31 356.572C349.242 356.208 349.119 355.856 348.946 355.529V355.505Z" fill="#999A1C"/>
<path d="M543.661 434.66L494.86 458.132C493.02 459.018 491.457 460.388 490.337 462.095C489.217 463.801 488.583 465.781 488.503 467.82C488.422 469.86 488.899 471.883 489.881 473.673C490.864 475.462 492.315 476.951 494.079 477.978L609.74 545.529C612.24 546.991 615.209 547.43 618.025 546.755C620.841 546.08 623.288 544.342 624.852 541.905L652.967 498.14" fill="#A1482D"/>
<path d="M809.093 321.443L419.947 96.9892C417.278 95.4528 414.252 94.6459 411.172 94.6494C408.093 94.653 405.068 95.467 402.403 97.0096C399.736 98.5538 397.521 100.772 395.982 103.441C394.443 106.111 393.633 109.138 393.633 112.22V345.724C393.632 348.287 394.306 350.805 395.587 353.025C396.867 355.245 398.709 357.089 400.928 358.372L815.789 598.082C817.219 598.912 818.844 599.35 820.498 599.351C822.153 599.352 823.778 598.917 825.21 598.089C826.642 597.26 827.831 596.068 828.657 594.634C829.482 593.2 829.915 591.573 829.912 589.918V357.382C829.907 350.09 827.981 342.929 824.326 336.62C820.671 330.31 815.417 325.075 809.093 321.443Z" fill="#F47B56"/>
<path d="M419.974 114.647L797.367 331.98C801.398 334.305 804.745 337.65 807.073 341.678C809.401 345.707 810.627 350.277 810.628 354.929V529.958C810.626 531.633 810.185 533.277 809.348 534.727C808.512 536.178 807.309 537.383 805.861 538.224C804.413 539.063 802.771 539.508 801.097 539.513C799.424 539.518 797.779 539.083 796.326 538.253L411.454 317.294C410.013 316.467 408.815 315.274 407.983 313.837C407.151 312.399 406.712 310.767 406.713 309.106V122.34C406.713 119.178 408.395 116.256 411.128 114.67C412.471 113.89 413.996 113.478 415.549 113.474C417.102 113.47 418.627 113.874 419.974 114.647Z" fill="white"/>
<path d="M578.768 444.78C583.22 443.922 586.034 439.1 585.053 434.009C584.073 428.917 579.669 425.485 575.217 426.342C570.765 427.199 567.951 432.021 568.932 437.112C569.913 442.204 574.316 445.637 578.768 444.78Z" fill="#AB643C"/>
<path opacity="0.32" d="M521.41 352.113L696.793 457.585L783.427 407.17L628.629 316.981" fill="url(#paint3_linear_39_204)"/>
<path d="M738.142 331.118L548.534 215.396C547.519 214.808 546.366 214.504 545.193 214.514C544.02 214.524 542.872 214.848 541.867 215.452C540.861 216.057 540.036 216.92 539.476 217.951C538.917 218.982 538.643 220.144 538.684 221.317V287.253C538.676 288.445 538.977 289.619 539.556 290.661C540.136 291.703 540.976 292.577 541.993 293.198L731.577 406.468C733.605 407.621 736.092 407.607 738.106 406.428C739.096 405.849 739.916 405.02 740.485 404.024C741.054 403.029 741.352 401.901 741.348 400.755L742.338 339.284C742.411 337.676 742.063 336.076 741.327 334.644C740.591 333.212 739.493 331.995 738.142 331.118Z" fill="#E2AC00"/>
<path d="M692.78 365.05C699.58 374.569 711.539 377.23 719.461 371.022C727.381 364.814 728.294 352.063 721.495 342.569C714.692 333.075 702.732 330.388 694.81 336.596C686.89 342.802 685.979 355.53 692.78 365.05Z" fill="white"/>
<path d="M674.176 319.357L596.841 272.751C596.177 272.439 595.421 272.388 594.72 272.605C594.02 272.822 593.426 273.293 593.054 273.926C592.683 274.559 592.56 275.308 592.712 276.026C592.863 276.744 593.277 277.38 593.872 277.81L671.205 324.416C671.869 324.727 672.626 324.779 673.326 324.562C674.027 324.344 674.621 323.873 674.992 323.241C675.364 322.608 675.486 321.859 675.336 321.141C675.185 320.423 674.771 319.787 674.176 319.357ZM670.997 338.292L564.401 274.054C563.748 273.83 563.037 273.842 562.392 274.088C561.747 274.334 561.209 274.798 560.871 275.4C560.533 276.002 560.417 276.703 560.543 277.382C560.67 278.06 561.03 278.673 561.561 279.113L668.026 343.376C668.69 343.687 669.447 343.739 670.147 343.521C670.848 343.304 671.442 342.833 671.813 342.2C672.185 341.568 672.307 340.819 672.157 340.101C672.006 339.382 671.592 338.746 670.997 338.316V338.292Z" fill="#F2F2F2"/>
<path d="M700.31 343.898L510.805 228.202C509.79 227.615 508.637 227.311 507.464 227.321C506.291 227.331 505.143 227.655 504.138 228.259C503.133 228.864 502.307 229.726 501.747 230.758C501.188 231.789 500.914 232.951 500.955 234.123V300.029C500.94 301.224 501.234 302.402 501.81 303.449C502.386 304.496 503.223 305.376 504.24 306.003L693.822 419.271C695.872 420.45 698.398 420.43 700.428 419.22C701.426 418.625 702.247 417.775 702.808 416.757C703.369 415.739 703.649 414.591 703.619 413.429L704.609 351.959C704.653 350.358 704.28 348.773 703.526 347.36C702.772 345.946 701.664 344.754 700.31 343.898Z" fill="#F47B56"/>
<path d="M654.946 377.83C661.747 387.348 673.706 390.01 681.628 383.802C689.548 377.594 690.46 364.84 683.66 355.348C676.859 345.852 664.9 343.168 656.98 349.374C649.058 355.582 648.146 368.309 654.946 377.83Z" fill="white"/>
<path d="M636.342 332.134L558.956 285.528C558.292 285.217 557.535 285.165 556.835 285.382C556.134 285.6 555.54 286.071 555.169 286.703C554.797 287.336 554.675 288.085 554.826 288.803C554.977 289.522 555.391 290.158 555.986 290.587L633.319 337.193C633.983 337.504 634.74 337.556 635.44 337.339C636.141 337.122 636.735 336.65 637.106 336.018C637.478 335.385 637.601 334.637 637.45 333.918C637.299 333.2 636.886 332.564 636.291 332.134H636.342ZM633.138 351.2L526.568 286.858C525.904 286.547 525.147 286.495 524.446 286.713C523.746 286.931 523.152 287.402 522.781 288.035C522.409 288.668 522.287 289.417 522.438 290.135C522.589 290.854 523.003 291.49 523.599 291.919L630.193 356.155C630.857 356.466 631.614 356.518 632.314 356.301C633.015 356.083 633.609 355.612 633.98 354.98C634.352 354.347 634.474 353.598 634.323 352.88C634.172 352.161 633.758 351.525 633.163 351.096L633.138 351.2Z" fill="#F2F2F2"/>
<path d="M652.759 351.671L463.2 235.976C462.185 235.388 461.032 235.083 459.859 235.093C458.686 235.103 457.538 235.426 456.533 236.031C455.528 236.635 454.702 237.498 454.143 238.529C453.584 239.561 453.311 240.723 453.352 241.895V307.802C453.344 308.995 453.644 310.169 454.224 311.21C454.804 312.252 455.643 313.126 456.661 313.748L646.243 427.018C648.293 428.197 650.819 428.177 652.851 426.965C653.848 426.37 654.669 425.52 655.23 424.502C655.79 423.485 656.07 422.337 656.04 421.176L657.031 359.704C657.072 358.11 656.701 356.533 655.953 355.125C655.204 353.718 654.104 352.528 652.759 351.671Z" fill="#68E1FD"/>
<path d="M652.759 351.671L463.2 235.976C462.185 235.388 461.032 235.083 459.859 235.093C458.686 235.103 457.538 235.426 456.533 236.031C455.528 236.635 454.702 237.498 454.143 238.529C453.584 239.561 453.311 240.723 453.352 241.895V307.802C453.344 308.995 453.644 310.169 454.224 311.21C454.804 312.252 455.643 313.126 456.661 313.748L646.243 427.018C648.293 428.197 650.819 428.177 652.851 426.965C653.848 426.37 654.669 425.52 655.23 424.502C655.79 423.485 656.07 422.337 656.04 421.176L657.031 359.704C657.072 358.11 656.701 356.533 655.953 355.125C655.204 353.718 654.104 352.528 652.759 351.671Z" fill="#68E1FD"/>
<path d="M607.369 385.602C614.168 395.12 626.129 397.782 634.049 391.574C641.971 385.366 642.883 372.612 636.083 363.12C629.282 353.626 617.321 350.94 609.401 357.148C601.481 363.354 600.647 376.081 607.367 385.602H607.369Z" fill="white"/>
<path d="M588.765 339.909L511.405 293.302C510.741 292.991 509.985 292.939 509.284 293.157C508.584 293.374 507.99 293.845 507.618 294.478C507.246 295.11 507.124 295.859 507.275 296.577C507.426 297.296 507.839 297.932 508.434 298.362L585.769 344.968C586.433 345.279 587.19 345.331 587.89 345.113C588.591 344.896 589.185 344.425 589.556 343.792C589.928 343.159 590.05 342.411 589.899 341.692C589.747 340.974 589.334 340.338 588.738 339.909H588.765ZM585.559 358.87L478.965 294.63C478.3 294.319 477.544 294.268 476.843 294.485C476.142 294.703 475.549 295.175 475.178 295.808C474.806 296.441 474.684 297.189 474.835 297.908C474.986 298.626 475.4 299.262 475.995 299.691L582.59 363.927C583.254 364.239 584.011 364.291 584.711 364.073C585.412 363.856 586.006 363.385 586.377 362.752C586.749 362.119 586.871 361.37 586.72 360.652C586.568 359.934 586.155 359.298 585.559 358.868V358.87Z" fill="#F2F2F2"/>
<path d="M403.977 345.201C391.725 355.759 382.462 369.348 377.113 384.609C367.68 410.692 391.261 453.306 391.261 453.306L427.948 424.228" fill="#FF8F6F"/>
<path d="M400.015 690.018L390.063 684.515L392.666 670.275C392.666 670.275 407.494 671.683 408.795 676.951" fill="#003B94"/>
<path d="M403.664 689.81C405.905 688.427 408.25 687.201 410.569 685.975C416.325 682.819 424.639 679.559 428.182 673.638C428.909 672.441 429.253 671.051 429.169 669.653C429.086 668.255 428.578 666.916 427.715 665.813C422.502 659.502 411.089 669.882 405.252 662.893C404.107 661.511 403.56 639.576 403.56 639.576L381.36 645.575C381.36 645.575 377.607 689.651 378.024 692.364C378.441 695.077 386.077 697.582 386.077 697.582C388.35 697.098 390.52 696.214 392.485 694.973C394.804 693.277 392.693 672.595 395.664 675.491C398.634 678.386 399.936 689.704 399.936 689.704C401.17 689.891 402.421 689.928 403.664 689.808V689.81Z" fill="#F47B56"/>
<path d="M442.409 711.323L432.456 705.9L435.059 691.66C435.059 691.66 449.886 693.069 451.188 698.336" fill="#003B94"/>
<path d="M446.16 711.117C448.401 709.734 450.746 708.51 453.065 707.283C458.823 704.128 467.136 700.868 470.679 694.947C471.405 693.749 471.749 692.359 471.665 690.961C471.582 689.564 471.074 688.224 470.211 687.122C464.998 680.81 453.586 691.191 447.75 684.202C446.603 682.819 446.056 660.885 446.056 660.885L423.856 666.883C423.856 666.883 420.079 711.116 420.496 713.725C420.913 716.332 428.546 718.941 428.546 718.941C430.821 718.457 432.991 717.574 434.957 716.332C437.276 714.638 435.165 693.956 438.136 696.852C441.106 699.746 442.407 711.066 442.407 711.066C443.651 711.237 444.912 711.254 446.16 711.117Z" fill="#F47B56"/>
<path d="M370.078 568.036L363.537 655.591C363.537 655.591 373.961 669.988 408.901 661.98L409.239 602.958M410.439 585.381C409.682 592.917 410.439 676.064 410.439 676.064C410.439 676.064 420.104 694.163 462.185 676.064L461.585 605.411" fill="#3E2928"/>
<path d="M366.82 596.96C369.687 598.943 370.676 588.745 373.674 590.494C384.574 596.831 396.144 601.939 408.171 605.724H408.431C408.718 605.585 409.029 605.505 409.348 605.488C409.666 605.472 409.984 605.52 410.283 605.63C410.583 605.739 410.857 605.908 411.089 606.126C411.322 606.344 411.508 606.606 411.637 606.898C419.066 609.116 426.629 610.858 434.28 612.113C444.104 613.679 452.231 606.404 462.315 605.907C462.315 567.256 462.498 457.246 446.056 433.774L397.41 417.395C397.176 421.411 373.804 448.534 374.376 481.606C375.026 518.875 370.182 554.033 369.348 565.69C369.218 567.673 366.925 594.85 366.82 596.96Z" fill="#3E2928"/>
<path d="M450.537 389.331L446.056 433.667C446.056 433.667 409.761 435.129 394.127 424.332V386.722" fill="#FF8F6F"/>
<path d="M496.682 360.148L492.982 365.207C494.955 361.091 496.696 356.87 498.193 352.559C499.237 349.61 494.52 348.437 493.479 351.383L492.93 352.896C493.383 351.331 493.808 349.759 494.207 348.175C494.29 347.863 494.31 347.538 494.265 347.219C494.221 346.9 494.114 346.592 493.95 346.315C493.786 346.037 493.569 345.795 493.31 345.603C493.052 345.41 492.757 345.271 492.445 345.193C492.132 345.115 491.807 345.1 491.488 345.149C491.169 345.198 490.864 345.31 490.589 345.479C490.314 345.647 490.075 345.868 489.886 346.13C489.698 346.391 489.563 346.687 489.49 347.001C488.468 351.094 487.242 355.134 485.817 359.104C486.614 355.579 487.188 352.006 487.538 348.409C487.851 345.308 482.978 345.438 482.691 348.409C482.286 352.504 481.555 356.56 480.502 360.538C480.502 359.147 480.372 357.756 480.112 356.365C480.077 356.018 479.968 355.683 479.792 355.381C479.617 355.08 479.379 354.819 479.095 354.617C478.963 354.071 478.807 353.532 478.627 353C478.443 352.453 478.072 351.989 477.58 351.689C477.087 351.389 476.505 351.273 475.934 351.36C475.364 351.448 474.843 351.734 474.463 352.168C474.084 352.601 473.869 353.156 473.858 353.732L473.544 371.988C472.664 373.879 471.513 375.638 470.132 377.204C472.476 378.827 474.738 380.568 476.907 382.42C478.841 384.057 480.685 385.798 482.431 387.635C483.988 385.696 485.491 383.713 486.938 381.69C487.117 381.537 487.275 381.362 487.405 381.167C491.745 374.739 496.228 368.409 500.852 362.181C502.78 360.042 498.533 357.669 496.682 360.148Z" fill="#FFB5A9"/>
<path d="M427.505 348.906C427.505 348.906 444.651 353.522 451.607 364.553C455.964 372.191 459.803 380.112 463.098 388.263L475.759 368.569C475.759 368.569 491.134 373.291 497.229 380.855C497.229 380.855 478.991 420.757 463.096 424.176C447.203 427.592 430.318 400.755 430.318 400.755C430.318 400.755 426.828 411.969 427.505 399.998" fill="#FF8F6F"/>
<path d="M438.397 391.548C433.412 387.488 429.651 382.125 427.532 376.057C425.471 369.042 428.052 362.884 430.448 356.365C433.044 349.902 434.558 343.055 434.931 336.1C435.138 329.268 434.357 322.435 433.888 315.626C433.821 315.334 433.821 315.031 433.888 314.739C431.595 307.046 426.905 300.525 417.657 299.742C393.71 297.709 392.355 324.259 392.538 335.057C392.721 345.854 393.866 353.156 385.92 357.669C377.972 362.181 372.24 374.021 379.822 383.595C387.405 393.164 380.603 389.671 375.549 398.172C370.495 406.674 371.797 417.291 382.168 421.124C392.538 424.957 440.742 417.758 445.17 413.299C446.742 411.502 447.555 409.165 447.437 406.78C446.357 400.78 443.147 395.37 438.397 391.548Z" fill="#007F68"/>
<path d="M461.951 172.572C466.01 178.42 468.356 185.285 468.724 192.393C469.178 195.648 468.388 198.954 466.511 201.652C465.713 202.531 464.643 203.12 463.472 203.323C462.301 203.526 461.096 203.333 460.047 202.774C458.731 202.249 457.541 201.449 456.557 200.427C455.673 199.597 454.917 198.639 454.316 197.585L453.692 196.359C453.521 196.679 453.31 196.977 453.065 197.245C452.444 197.729 451.708 198.043 450.93 198.158C449.626 198.4 448.28 198.236 447.073 197.688C444.192 196.44 441.796 194.289 440.245 191.56C438.376 188.592 437.333 185.18 437.223 181.675C437.033 180.273 437.151 178.846 437.57 177.495C437.988 176.143 438.698 174.899 439.647 173.851C440.472 173.054 441.523 172.531 442.656 172.353C443.789 172.175 444.95 172.352 445.979 172.858C447.022 173.275 447.984 173.875 448.818 174.633C449.53 175.237 450.159 175.929 450.694 176.693L451.161 177.527V175.207L456.374 177.24L456.895 191.899C456.932 192.949 457.257 193.967 457.835 194.846C458.323 195.694 459.073 196.361 459.97 196.749C462.488 197.741 463.652 195.568 463.462 190.23C463.2 184.944 461.457 179.837 458.433 175.494C455.716 171.077 451.678 167.628 446.89 165.636C445.153 164.752 443.19 164.411 441.257 164.657C439.323 164.904 437.509 165.727 436.05 167.018C434.493 168.584 433.308 170.48 432.582 172.565C431.856 174.651 431.608 176.872 431.856 179.066C432.153 184.656 433.953 190.063 437.066 194.716C439.544 199.308 443.449 202.97 448.192 205.147C449.843 205.838 451.617 206.184 453.405 206.164C454.568 206.243 455.733 206.028 456.791 205.539L457.835 204.964L460.987 210.832L460.464 211.199C459.97 211.476 459.457 211.72 458.929 211.929C458.095 212.288 457.22 212.534 456.321 212.661C455.172 212.815 454.007 212.815 452.858 212.661C451.347 212.48 449.867 212.103 448.454 211.538C444.44 209.81 440.875 207.187 438.031 203.87C434.659 200.138 431.929 195.872 429.954 191.247C427.975 186.828 426.844 182.077 426.618 177.24C426.338 173.173 427.167 169.109 429.016 165.479C430.551 162.434 433.201 160.098 436.416 158.958C439.783 157.848 443.443 158.034 446.681 159.48C453.005 162.156 458.341 166.731 461.951 172.572ZM450.46 191.116C451.314 190.022 451.7 188.634 451.527 187.255C451.486 185.556 451.01 183.895 450.146 182.432C449.441 181.154 448.332 180.145 446.994 179.562C446.481 179.297 445.899 179.195 445.326 179.27C444.753 179.344 444.217 179.592 443.789 179.979C443.339 180.492 443.004 181.094 442.807 181.747C442.609 182.399 442.553 183.086 442.643 183.761C442.702 185.482 443.213 187.155 444.128 188.611C444.881 189.937 446.04 190.98 447.437 191.586C447.926 191.837 448.482 191.926 449.025 191.842C449.568 191.757 450.07 191.504 450.46 191.116ZM769.593 454.976C773.658 460.821 776.004 467.688 776.365 474.798C776.82 478.052 776.03 481.358 774.153 484.056C773.351 484.931 772.283 485.516 771.113 485.72C769.944 485.923 768.74 485.732 767.691 485.178C766.377 484.646 765.188 483.847 764.199 482.832C763.319 481.996 762.564 481.038 761.957 479.987L761.333 478.763C761.156 479.08 760.946 479.377 760.706 479.649C760.088 480.137 759.352 480.453 758.571 480.562C757.279 480.822 755.939 480.667 754.741 480.119C751.856 478.864 749.459 476.703 747.913 473.964C746.027 470.993 744.974 467.57 744.864 464.053C744.667 462.651 744.781 461.222 745.201 459.869C745.62 458.517 746.333 457.273 747.289 456.228C748.11 455.434 749.156 454.913 750.285 454.735C751.413 454.558 752.569 454.734 753.594 455.238C754.639 455.653 755.601 456.253 756.433 457.011C757.145 457.625 757.776 458.327 758.311 459.098L758.805 459.931V457.611L764.016 459.618L764.538 474.277C764.583 475.324 764.906 476.341 765.474 477.224C765.966 478.071 766.715 478.738 767.612 479.127C770.217 480.119 771.287 477.954 771.13 472.608C770.866 467.314 769.123 462.2 766.1 457.845C763.384 453.445 759.357 450.006 754.584 448.013C752.849 447.13 750.888 446.786 748.956 447.028C747.023 447.27 745.208 448.086 743.744 449.37C742.195 450.954 741.023 452.867 740.315 454.967C739.607 457.066 739.382 459.298 739.656 461.497C739.947 467.087 741.747 472.494 744.864 477.144C747.439 481.627 751.385 485.166 756.122 487.238C757.773 487.926 759.544 488.281 761.333 488.281C762.496 488.349 763.658 488.134 764.719 487.655L765.763 487.082L768.915 492.95L768.395 493.316C767.899 493.594 767.386 493.838 766.857 494.046C766.019 494.392 765.144 494.636 764.252 494.776C763.093 494.93 761.918 494.93 760.759 494.776C759.257 494.586 757.785 494.2 756.382 493.629C752.371 491.908 748.806 489.294 745.959 485.986C742.587 482.245 739.858 477.971 737.884 473.338C735.904 468.919 734.772 464.168 734.549 459.331C734.265 455.274 735.094 451.216 736.944 447.594C738.483 444.547 741.131 442.204 744.344 441.049C747.722 439.95 751.386 440.136 754.635 441.571C760.886 444.387 766.112 449.07 769.593 454.976ZM758.101 473.521C758.529 472.981 758.846 472.362 759.034 471.699C759.222 471.037 759.277 470.343 759.195 469.659C759.15 467.957 758.666 466.296 757.79 464.836C757.097 463.557 755.996 462.547 754.662 461.967C754.151 461.699 753.571 461.593 752.999 461.662C752.427 461.732 751.889 461.974 751.458 462.357C751.001 462.865 750.659 463.466 750.456 464.119C750.253 464.772 750.195 465.462 750.285 466.139C750.346 467.851 750.856 469.515 751.77 470.965C752.52 472.297 753.681 473.348 755.079 473.964C755.565 474.218 756.119 474.312 756.662 474.232C757.205 474.152 757.708 473.903 758.101 473.521Z" fill="#F47B56"/>
<path style="mix-blend-mode:multiply" opacity="0.25" d="M250.351 566.186L162.151 515.952L73.979 566.288C73.979 566.288 123.041 596.958 166.946 622.727C194.825 603.009 219.604 580.452 250.351 566.186Z" fill="url(#paint4_linear_39_204)"/>
<g filter="url(#filter0_d_39_204)">
<path d="M99.0605 428.564V526.936L175.746 570.826L262.332 519.65V421.278" fill="black"/>
</g>
<path d="M99.0605 428.564V526.936L175.746 570.826L262.332 519.65V421.278" fill="#FF9271"/>
<path d="M175.747 472.456V570.828L262.334 519.65V421.278L175.747 472.456Z" fill="#DF5C34"/>
<path d="M99.0605 428.563L188.035 377.882L262.334 421.282L175.747 472.459L99.0605 428.563Z" fill="#F47B56"/>
<path d="M177.783 400.459C186.804 399.85 195.812 401.833 203.742 406.173C208.285 408.843 210.766 411.629 211.117 414.535C211.468 417.438 209.969 419.967 206.436 422.1C204.759 423.135 202.913 423.865 200.981 424.255C199.393 424.629 197.765 424.794 196.136 424.746L194.356 424.606C194.522 425.002 194.632 425.42 194.685 425.847C194.629 426.858 194.305 427.836 193.747 428.681C192.821 430.252 191.497 431.553 189.91 432.452C186.211 434.649 181.97 435.769 177.668 435.684C173.216 435.804 168.817 434.694 164.956 432.476C161.303 430.321 159.432 427.79 159.291 424.887C159.305 423.349 159.751 421.846 160.579 420.549C161.407 419.253 162.583 418.215 163.973 417.555C165.306 416.724 166.758 416.1 168.279 415.705C169.492 415.355 170.741 415.143 172.002 415.073H173.29L170.947 413.667L177.525 409.57L192.764 418.539C193.93 419.166 195.232 419.495 196.556 419.495C197.879 419.495 199.182 419.166 200.347 418.539C203.58 416.525 202.425 413.879 196.885 410.599C190.997 407.359 184.304 405.872 177.597 406.314C170.488 406.401 163.534 408.399 157.464 412.099C151.94 415.55 149.201 419.664 149.249 424.443C149.249 429.125 152.174 433.296 157.862 436.645C164.071 440.115 171.122 441.794 178.229 441.493C185.304 441.609 192.273 439.76 198.359 436.152C200.466 434.904 202.356 433.322 203.954 431.468C205.023 430.333 205.822 428.973 206.293 427.487L206.622 426.012L215.307 426.503C215.321 426.768 215.321 427.032 215.307 427.299C215.148 428.016 214.937 428.72 214.675 429.406C214.297 430.507 213.795 431.561 213.176 432.547C212.284 433.874 211.249 435.099 210.088 436.199C208.557 437.676 206.869 438.98 205.054 440.089C199.828 443.224 194.039 445.308 188.014 446.225C181.447 447.371 174.742 447.489 168.139 446.575C162.137 445.868 156.335 443.973 151.074 441C146.826 438.752 143.425 435.185 141.383 430.836C140.548 428.939 140.117 426.889 140.117 424.816C140.117 422.744 140.548 420.694 141.383 418.797C143.405 414.368 146.772 410.689 151.005 408.28C159.07 403.326 168.317 400.627 177.783 400.459ZM186.303 424.677C185.993 423.05 184.896 421.682 183.378 421.023C181.534 419.937 179.433 419.363 177.293 419.359C175.304 419.284 173.335 419.788 171.627 420.811C170.939 421.147 170.356 421.665 169.944 422.31C169.531 422.954 169.303 423.7 169.286 424.465C169.5 426.09 170.547 427.485 172.049 428.143C173.935 429.22 176.079 429.763 178.251 429.713C180.339 429.765 182.399 429.229 184.196 428.166C184.863 427.861 185.426 427.369 185.817 426.749C186.208 426.129 186.41 425.409 186.398 424.677" fill="#3E2928"/>
</g>
<defs>
<filter id="filter0_d_39_204" x="49.0605" y="396.278" width="263.272" height="249.548" filterUnits="userSpaceOnUse" color-interpolation-filters="sRGB">
<feFlood flood-opacity="0" result="BackgroundImageFix"/>
<feColorMatrix in="SourceAlpha" type="matrix" values="0 0 0 0 0 0 0 0 0 0 0 0 0 0 0 0 0 0 127 0" result="hardAlpha"/>
<feOffset dy="25"/>
<feGaussianBlur stdDeviation="25"/>
<feColorMatrix type="matrix" values="0 0 0 0 0.209139 0 0 0 0 0.0691446 0 0 0 0 0.478091 0 0 0 0.497159 0"/>
<feBlend mode="normal" in2="BackgroundImageFix" result="effect1_dropShadow_39_204"/>
<feBlend mode="normal" in="SourceGraphic" in2="effect1_dropShadow_39_204" result="shape"/>
</filter>
<linearGradient id="paint0_linear_39_204" x1="13536.9" y1="5793.58" x2="10702.1" y2="9640.83" gradientUnits="userSpaceOnUse">
<stop stop-color="#78B46A"/>
<stop offset="0.03" stop-color="#7F3500"/>
<stop offset="1" stop-color="white"/>
</linearGradient>
<linearGradient id="paint1_linear_39_204" x1="14799.2" y1="3617.15" x2="8853.49" y2="10146.3" gradientUnits="userSpaceOnUse">
<stop stop-color="#78B46A"/>
<stop offset="0.03" stop-color="#7F3500"/>
<stop offset="1" stop-color="white"/>
</linearGradient>
<linearGradient id="paint2_linear_39_204" x1="8762.71" y1="1979.96" x2="4304.65" y2="6875.94" gradientUnits="userSpaceOnUse">
<stop stop-color="#78B46A"/>
<stop offset="0.03" stop-color="#7F3500"/>
<stop offset="1" stop-color="white"/>
</linearGradient>
<linearGradient id="paint3_linear_39_204" x1="21749" y1="8835.99" x2="19077.2" y2="6884.71" gradientUnits="userSpaceOnUse">
<stop stop-color="white" stop-opacity="0"/>
<stop offset="0.99" stop-color="#DC841E"/>
</linearGradient>
<linearGradient id="paint4_linear_39_204" x1="14568.7" y1="3456.22" x2="8535.95" y2="10081" gradientUnits="userSpaceOnUse">
<stop stop-color="#78B46A"/>
<stop offset="0.03" stop-color="#7F3500"/>
<stop offset="1" stop-color="white"/>
</linearGradient>
<clipPath id="clip0_39_204">
<rect width="966" height="945" fill="white"/>
</clipPath>
</defs>
</svg>
