<svg width="1062" height="1039" viewBox="0 0 1062 1039" fill="none" xmlns="http://www.w3.org/2000/svg">
<g clip-path="url(#clip0_39_204)">
<g opacity="0.099">
<path d="M515.339 1030.59L21.7062 738.547C5.99053 729.7 -7.48016 715.206 7.83199 705.697L503.223 419.877C510.648 415.266 521.932 412.24 529.502 416.649L1047.6 717.714C1063.32 726.848 1066.14 752.292 1050.48 761.513L580.39 1030.13C570.524 1035.86 559.334 1038.92 547.926 1039C536.517 1039.08 525.285 1036.18 515.339 1030.59Z" fill="#6862E6"/>
<path d="M515.339 617.191L21.7062 325.146C5.99053 316.299 -7.48016 301.804 7.83199 292.296L503.223 6.47542C510.648 1.86424 521.932 -1.1615 529.502 3.24738L1047.6 304.312C1063.32 313.447 1066.14 338.891 1050.48 348.112L580.39 616.729C570.524 622.459 559.334 625.516 547.926 625.597C536.517 625.678 525.285 622.78 515.339 617.191Z" stroke="#1E1F36"/>
<path d="M515.339 699.651L21.7062 407.606C5.99053 398.759 -7.48016 384.264 7.83199 374.756L503.223 88.9354C510.648 84.3242 521.932 81.2985 529.502 85.7073L1047.6 386.772C1063.32 395.907 1066.14 421.351 1050.48 430.572L580.39 699.189C570.524 704.919 559.334 707.976 547.926 708.057C536.517 708.138 525.285 705.24 515.339 699.651Z" stroke="#1E1F36"/>
</g>
<g clip-path="url(#clip1_39_204)">
<path d="M780.754 821.319L527.446 671.23C519.381 666.683 512.469 659.234 520.326 654.348L774.537 507.457C778.347 505.088 784.137 503.533 788.022 505.798L1053.89 660.522C1061.95 665.217 1063.4 678.294 1055.36 683.032L814.137 821.082C809.074 824.027 803.332 825.598 797.478 825.639C791.623 825.681 785.858 824.191 780.754 821.319Z" fill="#5B36A0"/>
<path d="M780.754 814.391L527.446 664.302C519.381 659.756 512.469 652.306 520.326 647.42L774.537 500.53C778.347 498.16 784.137 496.605 788.022 498.87L1053.89 653.595C1061.95 658.289 1063.4 671.366 1055.36 676.105L814.137 814.154C809.074 817.099 803.332 818.67 797.478 818.711C791.623 818.753 785.858 817.264 780.754 814.391Z" fill="#6862E6"/>
<path style="mix-blend-mode:multiply" opacity="0.25" d="M801.64 616.366L751.656 644.962C751.656 644.962 828.654 692.07 844.398 698.704L873.185 657.239" fill="url(#paint0_linear_39_204)"/>
<path style="mix-blend-mode:multiply" opacity="0.25" d="M784.374 753.555L734.376 725.02L684.379 753.615C684.379 753.615 710.419 769.549 735.306 784.181C751.111 772.97 766.929 761.642 784.374 753.555Z" fill="url(#paint1_linear_39_204)"/>
<path style="mix-blend-mode:multiply" opacity="0.46" d="M676.655 577.329L644.943 595.47C644.943 595.47 647.63 612.101 663.376 618.735L704.894 592.079" fill="url(#paint2_linear_39_204)"/>
<path d="M692.178 595.47C702.742 595.47 711.305 589.423 711.305 581.964C711.305 574.506 702.742 568.459 692.178 568.459C681.614 568.459 673.05 574.506 673.05 581.964C673.05 589.423 681.614 595.47 692.178 595.47Z" fill="#68E1FD"/>
<path d="M692.163 579.876C700.075 579.876 706.489 577.243 706.489 573.996C706.489 570.749 700.075 568.117 692.163 568.117C684.251 568.117 677.836 570.749 677.836 573.996C677.836 577.243 684.251 579.876 692.163 579.876Z" fill="#974C26"/>
<path d="M691.645 564.193C691.645 561.542 691.558 558.892 691.35 556.241C691.291 555.55 691.228 554.864 691.159 554.183L691.011 552.835C691.011 552.434 690.804 551.354 690.804 551.458C690.715 550.915 690.621 550.377 690.523 549.844C688.961 540.846 685.475 532.293 680.303 524.771C678.357 529.415 677.386 534.411 677.451 539.446C677.451 540.929 677.57 542.409 677.688 543.802V544.676C677.806 545.386 677.939 546.156 678.087 546.807C678.65 549.508 679.405 552.166 680.346 554.76C681.193 557.148 682.225 559.465 683.434 561.691C684.737 564.196 686.152 566.642 687.672 569.021C688.769 570.758 689.917 572.462 691.114 574.131C691.469 570.828 691.631 567.51 691.645 564.193ZM684.128 534.382C684.204 534.041 684.204 533.688 684.128 533.347C684.492 533.721 684.852 534.106 685.206 534.501C684.851 534.4 684.482 534.36 684.113 534.382H684.128Z" fill="#999A1C"/>
<path d="M696.564 566.237C698.028 564.024 699.374 561.736 700.597 559.381C700.922 558.769 701.237 558.157 701.542 557.545L702.147 556.315L702.724 555.042L703.358 553.56C706.899 545.134 708.576 536.041 708.277 526.904C704.124 529.757 700.604 533.437 697.938 537.715C697.172 538.949 696.458 540.214 695.796 541.506L695.501 542.054L695.427 542.292C695.147 542.958 694.865 543.624 694.6 544.305C693.62 546.886 692.825 549.534 692.222 552.228C691.647 554.697 691.267 557.208 691.085 559.736C690.824 562.547 690.696 565.369 690.701 568.192C690.701 570.398 690.701 572.413 690.834 574.352C692.798 571.732 694.777 569.036 696.564 566.237ZM706.313 537.079C706.544 536.818 706.715 536.509 706.815 536.175C706.923 536.688 707.016 537.183 707.096 537.656C706.865 537.425 706.601 537.231 706.313 537.079Z" fill="#999A1C"/>
<path d="M696.461 572.842C697.965 572.092 699.442 571.292 700.892 570.443L701.999 569.762L702.724 569.302L703.433 568.799L704.26 568.191C708.878 564.792 712.707 560.432 715.485 555.411C712.332 555.614 709.255 556.466 706.446 557.914C705.633 558.33 704.85 558.788 704.067 559.262L703.728 559.469L703.609 559.573L702.516 560.387C701.155 561.464 699.872 562.637 698.677 563.897C697.573 565.045 696.56 566.278 695.648 567.584C694.623 569.037 693.638 570.519 692.694 572.027C692.026 573.133 691.39 574.259 690.789 575.404C692.694 574.604 694.6 573.776 696.461 572.842ZM711.113 560.255C711.322 560.189 711.514 560.077 711.674 559.928C711.566 560.244 711.448 560.555 711.319 560.861C711.281 560.654 711.211 560.454 711.113 560.268V560.255ZM691.645 564.193C691.645 561.542 691.558 558.892 691.35 556.241C691.291 555.55 691.228 554.864 691.159 554.183L691.011 552.835C691.011 552.434 690.804 551.354 690.804 551.458C690.715 550.915 690.621 550.377 690.523 549.844C688.961 540.846 685.475 532.293 680.303 524.771C678.357 529.415 677.386 534.411 677.451 539.446C677.451 540.929 677.57 542.409 677.688 543.802V544.676C677.806 545.386 677.939 546.156 678.087 546.807C678.65 549.508 679.405 552.166 680.346 554.76C681.193 557.148 682.225 559.465 683.434 561.691C684.737 564.196 686.152 566.642 687.672 569.021C688.769 570.758 689.917 572.462 691.114 574.131C691.469 570.828 691.631 567.51 691.645 564.193ZM684.128 534.382C684.204 534.041 684.204 533.688 684.128 533.347C684.492 533.721 684.852 534.106 685.206 534.501C684.851 534.4 684.482 534.36 684.113 534.382H684.128Z" fill="#999A1C"/>
<path d="M696.564 566.237C698.028 564.024 699.374 561.736 700.597 559.381C700.922 558.769 701.237 558.157 701.542 557.545L702.147 556.315L702.724 555.042L703.358 553.56C706.899 545.134 708.576 536.041 708.277 526.904C704.124 529.757 700.604 533.437 697.938 537.715C697.172 538.949 696.458 540.214 695.796 541.506L695.501 542.054L695.427 542.292C695.147 542.958 694.865 543.624 694.6 544.305C693.62 546.886 692.825 549.534 692.222 552.228C691.647 554.697 691.267 557.208 691.085 559.736C690.824 562.547 690.696 565.369 690.701 568.192C690.701 570.398 690.701 572.413 690.834 574.352C692.798 571.732 694.777 569.036 696.564 566.237ZM706.313 537.079C706.544 536.818 706.715 536.509 706.815 536.175C706.923 536.688 707.016 537.183 707.096 537.656C706.865 537.425 706.601 537.231 706.313 537.079Z" fill="#999A1C"/>
<path d="M696.461 572.842C697.965 572.093 699.442 571.292 700.892 570.443L701.999 569.762L702.724 569.302L703.433 568.799L704.26 568.191C708.878 564.792 712.707 560.432 715.485 555.411C712.332 555.614 709.255 556.466 706.446 557.914C705.633 558.33 704.85 558.788 704.067 559.262L703.728 559.47L703.609 559.573L702.516 560.387C701.155 561.464 699.872 562.637 698.677 563.897C697.573 565.045 696.56 566.278 695.648 567.584C694.623 569.037 693.638 570.519 692.694 572.027C692.025 573.133 691.39 574.26 690.789 575.404C692.694 574.604 694.6 573.776 696.461 572.842ZM711.113 560.255C711.322 560.189 711.514 560.077 711.674 559.928C711.566 560.244 711.448 560.555 711.319 560.861C711.281 560.654 711.211 560.454 711.113 560.269V560.255Z" fill="#999A1C"/>
<path d="M821.49 605.2L793.827 618.528C792.784 619.031 791.898 619.809 791.263 620.778C790.628 621.747 790.268 622.871 790.223 624.029C790.177 625.187 790.448 626.336 791.004 627.352C791.561 628.368 792.384 629.213 793.384 629.797L858.949 668.152C860.366 668.983 862.048 669.232 863.645 668.849C865.242 668.465 866.628 667.478 867.515 666.095L883.452 641.244" fill="#A1482D"/>
<path d="M971.955 540.914L751.361 413.467C749.848 412.595 748.133 412.137 746.387 412.139C744.641 412.141 742.927 412.603 741.416 413.479C739.904 414.356 738.649 415.615 737.776 417.131C736.904 418.647 736.444 420.366 736.444 422.115V554.701C736.444 556.156 736.826 557.586 737.552 558.846C738.278 560.107 739.322 561.154 740.58 561.883L975.751 697.992C976.562 698.464 977.483 698.712 978.421 698.713C979.358 698.713 980.28 698.466 981.091 697.996C981.903 697.525 982.577 696.849 983.045 696.034C983.513 695.22 983.759 694.296 983.757 693.357V561.32C983.754 557.18 982.662 553.114 980.59 549.531C978.518 545.949 975.54 542.977 971.955 540.914Z" fill="#F47B56"/>
<path d="M751.376 423.494L965.308 546.897C967.593 548.217 969.491 550.116 970.81 552.404C972.13 554.691 972.825 557.286 972.826 559.928V659.311C972.824 660.261 972.574 661.195 972.1 662.019C971.626 662.842 970.944 663.527 970.123 664.004C969.303 664.481 968.371 664.733 967.423 664.736C966.474 664.739 965.541 664.492 964.718 664.02L746.546 538.558C745.73 538.089 745.051 537.411 744.579 536.595C744.107 535.779 743.859 534.852 743.859 533.909V427.861C743.859 426.066 744.812 424.407 746.362 423.506C747.123 423.064 747.988 422.829 748.868 422.827C749.748 422.825 750.613 423.055 751.376 423.494Z" fill="white"/>
<path d="M841.392 610.945C843.915 610.459 845.51 607.721 844.954 604.83C844.398 601.939 841.902 599.99 839.378 600.476C836.855 600.963 835.26 603.701 835.816 606.592C836.372 609.483 838.868 611.432 841.392 610.945Z" fill="#AB643C"/>
<path opacity="0.32" d="M808.877 558.329L908.296 618.217L957.406 589.591L869.656 538.381" fill="url(#paint3_linear_39_204)"/>
<path d="M931.736 546.408L824.253 480.7C823.678 480.367 823.024 480.194 822.359 480.199C821.694 480.205 821.043 480.389 820.474 480.732C819.904 481.076 819.436 481.565 819.118 482.151C818.801 482.736 818.646 483.396 818.669 484.062V521.501C818.665 522.178 818.835 522.845 819.164 523.436C819.492 524.028 819.968 524.524 820.545 524.877L928.014 589.193C929.163 589.848 930.573 589.839 931.715 589.17C932.276 588.841 932.741 588.37 933.064 587.805C933.386 587.24 933.555 586.6 933.553 585.948L934.114 551.045C934.156 550.132 933.958 549.223 933.541 548.41C933.123 547.597 932.501 546.906 931.736 546.408Z" fill="#E2AC00"/>
<path d="M906.021 565.674C909.876 571.079 916.655 572.59 921.146 569.065C925.635 565.541 926.153 558.3 922.299 552.909C918.442 547.518 911.663 545.993 907.172 549.518C902.682 553.042 902.166 560.269 906.021 565.674Z" fill="white"/>
<path d="M895.475 539.73L851.637 513.266C851.26 513.09 850.831 513.06 850.434 513.184C850.037 513.307 849.7 513.574 849.49 513.934C849.279 514.293 849.21 514.718 849.296 515.126C849.381 515.534 849.616 515.895 849.953 516.139L893.791 542.602C894.167 542.779 894.596 542.808 894.993 542.685C895.39 542.562 895.727 542.294 895.938 541.935C896.148 541.576 896.218 541.151 896.132 540.743C896.047 540.335 895.813 539.974 895.475 539.73ZM893.673 550.481L833.247 514.006C832.877 513.879 832.474 513.886 832.108 514.025C831.743 514.165 831.438 514.429 831.246 514.771C831.055 515.112 830.989 515.51 831.061 515.896C831.132 516.281 831.336 516.629 831.638 516.879L891.989 553.368C892.365 553.544 892.794 553.574 893.191 553.45C893.588 553.327 893.925 553.06 894.136 552.7C894.346 552.341 894.416 551.916 894.33 551.508C894.245 551.1 894.011 550.739 893.673 550.495V550.481Z" fill="#F2F2F2"/>
<path d="M910.29 553.665L802.866 487.971C802.29 487.638 801.636 487.465 800.972 487.471C800.307 487.477 799.656 487.661 799.086 488.004C798.516 488.347 798.048 488.837 797.731 489.422C797.414 490.008 797.259 490.668 797.282 491.334V528.755C797.273 529.434 797.44 530.103 797.766 530.697C798.093 531.292 798.567 531.791 799.144 532.147L906.612 596.462C907.774 597.132 909.206 597.12 910.356 596.433C910.922 596.095 911.388 595.612 911.706 595.034C912.024 594.457 912.182 593.804 912.165 593.145L912.727 558.241C912.752 557.332 912.54 556.432 912.113 555.63C911.686 554.828 911.057 554.15 910.29 553.665Z" fill="#F47B56"/>
<path d="M884.574 572.931C888.43 578.336 895.209 579.847 899.7 576.322C904.189 572.797 904.706 565.555 900.852 560.166C896.996 554.774 890.217 553.25 885.727 556.773C881.236 560.298 880.72 567.525 884.574 572.931Z" fill="white"/>
<path d="M874.028 546.985L830.161 520.521C829.784 520.344 829.355 520.315 828.958 520.438C828.561 520.562 828.224 520.829 828.014 521.188C827.803 521.548 827.734 521.973 827.82 522.381C827.905 522.789 828.14 523.15 828.477 523.394L872.315 549.857C872.691 550.034 873.12 550.063 873.517 549.94C873.914 549.816 874.251 549.549 874.462 549.19C874.672 548.831 874.742 548.405 874.656 547.998C874.571 547.59 874.337 547.229 873.999 546.985H874.028ZM872.212 557.81L811.801 521.276C811.424 521.1 810.996 521.07 810.598 521.194C810.201 521.318 809.865 521.585 809.654 521.945C809.444 522.304 809.374 522.729 809.46 523.137C809.546 523.545 809.78 523.906 810.118 524.15L870.543 560.624C870.919 560.8 871.348 560.83 871.745 560.707C872.142 560.583 872.479 560.316 872.69 559.956C872.9 559.597 872.97 559.172 872.884 558.764C872.798 558.356 872.564 557.995 872.226 557.751L872.212 557.81Z" fill="#F2F2F2"/>
<path d="M883.335 558.078L775.88 492.385C775.304 492.051 774.65 491.878 773.986 491.884C773.321 491.889 772.67 492.073 772.1 492.416C771.53 492.76 771.063 493.25 770.746 493.835C770.429 494.421 770.274 495.08 770.297 495.746V533.169C770.293 533.846 770.463 534.512 770.792 535.104C771.12 535.696 771.596 536.192 772.173 536.545L879.641 600.861C880.803 601.53 882.235 601.519 883.387 600.831C883.952 600.493 884.417 600.01 884.735 599.432C885.053 598.855 885.211 598.203 885.194 597.544L885.756 562.639C885.78 561.734 885.569 560.839 885.145 560.039C884.721 559.24 884.097 558.565 883.335 558.078Z" fill="#68E1FD"/>
<path d="M883.335 558.078L775.88 492.385C775.304 492.051 774.65 491.878 773.986 491.884C773.321 491.889 772.67 492.073 772.1 492.416C771.53 492.76 771.063 493.25 770.746 493.835C770.429 494.421 770.274 495.08 770.297 495.746V533.169C770.293 533.846 770.463 534.512 770.792 535.104C771.12 535.696 771.596 536.192 772.173 536.545L879.641 600.861C880.803 601.53 882.235 601.519 883.387 600.831C883.952 600.493 884.417 600.01 884.735 599.432C885.053 598.855 885.211 598.203 885.194 597.544L885.756 562.639C885.78 561.734 885.569 560.839 885.145 560.039C884.721 559.24 884.097 558.565 883.335 558.078Z" fill="#68E1FD"/>
<path d="M857.604 577.344C861.459 582.749 868.239 584.26 872.729 580.735C877.22 577.21 877.736 569.969 873.882 564.579C870.026 559.188 863.246 557.663 858.756 561.188C854.267 564.712 853.794 571.939 857.603 577.344H857.604Z" fill="white"/>
<path d="M847.058 551.399L803.206 524.935C802.829 524.759 802.401 524.729 802.003 524.852C801.606 524.976 801.27 525.243 801.059 525.603C800.848 525.962 800.779 526.387 800.864 526.795C800.95 527.203 801.184 527.564 801.521 527.808L845.36 554.271C845.737 554.448 846.165 554.477 846.563 554.354C846.96 554.231 847.296 553.963 847.507 553.604C847.718 553.244 847.787 552.819 847.701 552.411C847.615 552.004 847.381 551.642 847.043 551.399H847.058ZM845.241 562.165L784.816 525.689C784.44 525.513 784.011 525.483 783.614 525.607C783.216 525.731 782.88 525.998 782.67 526.358C782.459 526.717 782.39 527.142 782.475 527.55C782.561 527.958 782.796 528.319 783.133 528.563L843.558 565.037C843.935 565.213 844.363 565.243 844.76 565.119C845.158 564.996 845.494 564.728 845.705 564.369C845.916 564.01 845.985 563.585 845.899 563.177C845.813 562.769 845.579 562.408 845.241 562.164V562.165Z" fill="#F2F2F2"/>
<path d="M742.308 554.404C735.363 560.399 730.112 568.115 727.08 576.78C721.733 591.59 735.1 615.787 735.1 615.787L755.897 599.277" fill="#FF8F6F"/>
<path d="M740.062 750.194L734.421 747.07L735.897 738.984C735.897 738.984 744.302 739.783 745.04 742.775" fill="#003B94"/>
<path d="M742.131 750.076C743.401 749.291 744.73 748.595 746.045 747.898C749.308 746.106 754.021 744.256 756.029 740.893C756.441 740.214 756.636 739.424 756.589 738.631C756.541 737.837 756.254 737.076 755.764 736.451C752.809 732.867 746.34 738.761 743.031 734.793C742.382 734.007 742.072 721.553 742.072 721.553L729.487 724.959C729.487 724.959 727.36 749.986 727.596 751.526C727.833 753.066 732.161 754.489 732.161 754.489C733.45 754.214 734.68 753.712 735.794 753.007C737.108 752.045 735.912 740.301 737.596 741.945C739.279 743.589 740.017 750.016 740.017 750.016C740.717 750.122 741.426 750.143 742.131 750.075V750.076Z" fill="#F47B56"/>
<path d="M764.094 762.292L758.452 759.213L759.928 751.127C759.928 751.127 768.333 751.927 769.07 754.917" fill="#003B94"/>
<path d="M766.22 762.174C767.491 761.389 768.82 760.694 770.135 759.998C773.399 758.206 778.111 756.355 780.119 752.993C780.531 752.313 780.726 751.524 780.679 750.73C780.631 749.936 780.344 749.176 779.854 748.55C776.899 744.966 770.43 750.86 767.122 746.892C766.472 746.107 766.162 733.652 766.162 733.652L753.577 737.058C753.577 737.058 751.436 762.174 751.672 763.656C751.909 765.136 756.236 766.617 756.236 766.617C757.525 766.343 758.756 765.841 759.87 765.136C761.184 764.174 759.987 752.431 761.672 754.075C763.355 755.718 764.093 762.146 764.093 762.146C764.798 762.243 765.513 762.252 766.22 762.174Z" fill="#F47B56"/>
<path d="M723.092 680.932L719.384 730.646C719.384 730.646 725.293 738.821 745.099 734.274L745.291 700.761M745.971 690.78C745.542 695.059 745.971 742.271 745.971 742.271C745.971 742.271 751.45 752.548 775.304 742.271L774.964 702.153" fill="#3E2928"/>
<path d="M721.245 697.356C722.871 698.481 723.431 692.691 725.13 693.684C731.309 697.282 737.868 700.183 744.686 702.332H744.833C744.995 702.253 745.172 702.207 745.353 702.198C745.533 702.189 745.713 702.216 745.883 702.278C746.053 702.34 746.208 702.436 746.34 702.56C746.472 702.683 746.577 702.833 746.65 702.998C750.861 704.258 755.149 705.247 759.486 705.96C765.055 706.849 769.662 702.717 775.378 702.436C775.378 680.489 775.482 618.024 766.162 604.697L738.585 595.396C738.453 597.677 725.204 613.078 725.528 631.856C725.897 653.018 723.151 672.981 722.678 679.6C722.604 680.726 721.305 696.157 721.245 697.356Z" fill="#3E2928"/>
<path d="M768.701 579.462L766.161 604.637C766.161 604.637 745.587 605.467 736.724 599.336V577.98" fill="#FF8F6F"/>
<path d="M794.86 562.891L792.762 565.763C793.881 563.426 794.868 561.029 795.716 558.582C796.308 556.907 793.634 556.241 793.044 557.914L792.733 558.773C792.99 557.884 793.231 556.992 793.457 556.092C793.503 555.915 793.515 555.731 793.49 555.55C793.465 555.368 793.404 555.194 793.311 555.036C793.218 554.879 793.095 554.741 792.948 554.632C792.802 554.522 792.635 554.443 792.458 554.399C792.28 554.355 792.096 554.347 791.915 554.374C791.735 554.402 791.561 554.466 791.406 554.561C791.25 554.657 791.114 554.783 791.007 554.931C790.901 555.08 790.824 555.248 790.783 555.426C790.204 557.75 789.509 560.044 788.701 562.298C789.152 560.296 789.478 558.268 789.676 556.225C789.854 554.464 787.091 554.538 786.929 556.225C786.699 558.55 786.284 560.853 785.688 563.112C785.688 562.322 785.614 561.533 785.467 560.743C785.447 560.546 785.385 560.355 785.285 560.184C785.186 560.013 785.051 559.865 784.89 559.75C784.815 559.44 784.727 559.134 784.625 558.832C784.521 558.522 784.311 558.258 784.031 558.088C783.752 557.918 783.422 557.851 783.099 557.901C782.775 557.951 782.48 558.113 782.265 558.359C782.049 558.606 781.928 558.92 781.921 559.248L781.744 569.614C781.245 570.688 780.592 571.686 779.809 572.575C781.138 573.497 782.42 574.486 783.65 575.537C784.746 576.466 785.792 577.455 786.781 578.498C787.664 577.397 788.516 576.271 789.336 575.122C789.437 575.036 789.527 574.936 789.601 574.826C792.061 571.176 794.602 567.581 797.223 564.045C798.316 562.831 795.909 561.483 794.86 562.891Z" fill="#FFB5A9"/>
<path d="M755.646 556.508C755.646 556.508 765.365 559.129 769.308 565.392C771.778 569.729 773.954 574.227 775.822 578.855L782.999 567.673C782.999 567.673 791.714 570.354 795.17 574.649C795.17 574.649 784.831 597.306 775.821 599.246C766.812 601.186 757.24 585.948 757.24 585.948C757.24 585.948 755.262 592.315 755.646 585.518" fill="#FF8F6F"/>
<path d="M761.82 580.72C758.994 578.415 756.862 575.37 755.661 571.924C754.493 567.941 755.956 564.445 757.314 560.743C758.785 557.073 759.644 553.185 759.855 549.236C759.973 545.357 759.53 541.477 759.263 537.611C759.226 537.445 759.226 537.273 759.263 537.107C757.964 532.739 755.305 529.037 750.063 528.592C736.488 527.437 735.72 542.513 735.824 548.644C735.928 554.775 736.577 558.921 732.072 561.483C727.567 564.045 724.318 570.768 728.616 576.204C732.914 581.638 729.059 579.654 726.193 584.482C723.328 589.309 724.066 595.337 729.945 597.513C735.824 599.69 763.149 595.603 765.659 593.071C766.55 592.05 767.011 590.723 766.944 589.369C766.332 585.962 764.512 582.89 761.82 580.72Z" fill="#007F68"/>
<path d="M775.172 456.383C777.473 459.704 778.802 463.602 779.011 467.638C779.269 469.486 778.821 471.364 777.757 472.895C777.304 473.395 776.698 473.729 776.034 473.844C775.37 473.96 774.687 473.85 774.093 473.533C773.346 473.234 772.672 472.78 772.114 472.2C771.613 471.729 771.185 471.185 770.844 470.586L770.49 469.89C770.393 470.072 770.274 470.241 770.135 470.393C769.783 470.668 769.366 470.847 768.924 470.912C768.185 471.049 767.422 470.956 766.738 470.645C765.105 469.936 763.746 468.715 762.868 467.165C761.808 465.48 761.217 463.543 761.154 461.553C761.046 460.756 761.113 459.946 761.351 459.179C761.588 458.411 761.99 457.705 762.529 457.11C762.996 456.657 763.592 456.36 764.234 456.259C764.877 456.158 765.534 456.259 766.118 456.546C766.709 456.783 767.255 457.124 767.727 457.554C768.131 457.897 768.487 458.29 768.79 458.724L769.055 459.197V457.88L772.01 459.034L772.306 467.358C772.326 467.954 772.511 468.532 772.838 469.031C773.115 469.512 773.54 469.891 774.049 470.112C775.476 470.675 776.136 469.441 776.029 466.41C775.88 463.408 774.892 460.509 773.177 458.043C771.638 455.535 769.348 453.576 766.634 452.445C765.65 451.943 764.537 451.75 763.441 451.89C762.345 452.03 761.316 452.497 760.489 453.23C759.607 454.12 758.935 455.196 758.523 456.38C758.112 457.564 757.971 458.825 758.112 460.071C758.28 463.245 759.301 466.315 761.066 468.957C762.47 471.565 764.684 473.644 767.372 474.88C768.308 475.273 769.314 475.469 770.327 475.457C770.987 475.502 771.647 475.38 772.247 475.103L772.838 474.776L774.625 478.108L774.329 478.316C774.049 478.474 773.758 478.612 773.459 478.731C772.986 478.935 772.49 479.075 771.981 479.146C771.329 479.234 770.669 479.234 770.017 479.146C769.161 479.044 768.322 478.83 767.521 478.509C765.246 477.528 763.224 476.038 761.612 474.155C759.701 472.036 758.153 469.614 757.034 466.987C755.912 464.478 755.271 461.78 755.143 459.034C754.984 456.725 755.454 454.417 756.502 452.356C757.372 450.627 758.874 449.301 760.697 448.653C762.605 448.023 764.68 448.129 766.516 448.95C770.101 450.469 773.126 453.067 775.172 456.383ZM768.658 466.913C769.142 466.292 769.361 465.504 769.263 464.721C769.239 463.756 768.97 462.813 768.48 461.982C768.08 461.257 767.452 460.684 766.693 460.353C766.402 460.202 766.072 460.144 765.748 460.187C765.423 460.229 765.119 460.37 764.876 460.59C764.621 460.881 764.431 461.223 764.319 461.593C764.207 461.963 764.176 462.354 764.227 462.737C764.26 463.714 764.55 464.664 765.069 465.491C765.495 466.244 766.152 466.836 766.944 467.18C767.222 467.322 767.537 467.373 767.844 467.325C768.152 467.277 768.437 467.133 768.658 466.913ZM949.564 616.735C951.868 620.054 953.198 623.953 953.403 627.99C953.661 629.838 953.213 631.715 952.149 633.247C951.694 633.744 951.089 634.076 950.426 634.192C949.763 634.307 949.081 634.199 948.486 633.884C947.741 633.582 947.067 633.128 946.506 632.552C946.007 632.077 945.579 631.533 945.235 630.937L944.882 630.242C944.781 630.422 944.662 630.59 944.526 630.745C944.176 631.022 943.759 631.201 943.316 631.263C942.584 631.411 941.824 631.323 941.145 631.012C939.51 630.299 938.151 629.072 937.274 627.517C936.205 625.83 935.608 623.886 935.546 621.889C935.434 621.093 935.499 620.282 935.737 619.514C935.974 618.746 936.378 618.04 936.92 617.446C937.386 616.995 937.979 616.699 938.619 616.598C939.258 616.498 939.914 616.598 940.495 616.884C941.087 617.12 941.633 617.46 942.104 617.891C942.508 618.24 942.865 618.638 943.168 619.075L943.448 619.549V618.231L946.402 619.371L946.699 627.695C946.724 628.289 946.907 628.866 947.229 629.368C947.508 629.849 947.932 630.228 948.441 630.448C949.918 631.012 950.524 629.782 950.435 626.747C950.285 623.741 949.298 620.837 947.584 618.364C946.044 615.866 943.761 613.913 941.056 612.782C940.072 612.28 938.961 612.085 937.865 612.222C936.77 612.36 935.741 612.823 934.911 613.552C934.033 614.452 933.369 615.538 932.967 616.73C932.566 617.922 932.438 619.189 932.593 620.438C932.759 623.612 933.779 626.682 935.546 629.322C937.005 631.868 939.242 633.877 941.928 635.054C942.864 635.444 943.868 635.646 944.882 635.646C945.541 635.685 946.199 635.563 946.801 635.291L947.393 634.965L949.18 638.297L948.885 638.505C948.604 638.663 948.313 638.801 948.013 638.92C947.538 639.116 947.042 639.254 946.536 639.334C945.879 639.421 945.213 639.421 944.556 639.334C943.705 639.226 942.87 639.007 942.075 638.683C939.801 637.706 937.78 636.221 936.166 634.343C934.255 632.219 932.708 629.792 931.589 627.161C930.467 624.652 929.825 621.954 929.698 619.208C929.538 616.904 930.007 614.6 931.057 612.544C931.928 610.813 933.43 609.483 935.251 608.827C937.166 608.203 939.243 608.309 941.085 609.124C944.628 610.723 947.59 613.382 949.564 616.735ZM943.049 627.265C943.292 626.959 943.472 626.607 943.579 626.231C943.685 625.854 943.716 625.461 943.67 625.072C943.644 624.106 943.37 623.163 942.873 622.334C942.48 621.608 941.856 621.034 941.1 620.705C940.811 620.552 940.482 620.492 940.157 620.532C939.833 620.571 939.528 620.709 939.284 620.926C939.024 621.215 938.831 621.556 938.716 621.927C938.601 622.298 938.568 622.689 938.619 623.074C938.653 624.046 938.943 624.99 939.46 625.814C939.886 626.57 940.544 627.167 941.336 627.517C941.612 627.661 941.926 627.714 942.234 627.669C942.541 627.624 942.827 627.482 943.049 627.265Z" fill="#F47B56"/>
<path style="mix-blend-mode:multiply" opacity="0.25" d="M655.222 679.882L605.225 651.358L555.243 679.939C555.243 679.939 583.055 697.354 607.943 711.986C623.747 700.79 637.793 687.982 655.222 679.882Z" fill="url(#paint4_linear_39_204)"/>
</g>
</g>
<defs>
<linearGradient id="paint0_linear_39_204" x1="8186.93" y1="3648.04" x2="6576.51" y2="5829.99" gradientUnits="userSpaceOnUse">
<stop stop-color="#78B46A"/>
<stop offset="0.03" stop-color="#7F3500"/>
<stop offset="1" stop-color="white"/>
</linearGradient>
<linearGradient id="paint1_linear_39_204" x1="8902.51" y1="2412.25" x2="5525.94" y2="6113.95" gradientUnits="userSpaceOnUse">
<stop stop-color="#78B46A"/>
<stop offset="0.03" stop-color="#7F3500"/>
<stop offset="1" stop-color="white"/>
</linearGradient>
<linearGradient id="paint2_linear_39_204" x1="5480.6" y1="1482.63" x2="2948.89" y2="4258.43" gradientUnits="userSpaceOnUse">
<stop stop-color="#78B46A"/>
<stop offset="0.03" stop-color="#7F3500"/>
<stop offset="1" stop-color="white"/>
</linearGradient>
<linearGradient id="paint3_linear_39_204" x1="12842.1" y1="5375.55" x2="11325.8" y2="4269.99" gradientUnits="userSpaceOnUse">
<stop stop-color="white" stop-opacity="0"/>
<stop offset="0.99" stop-color="#DC841E"/>
</linearGradient>
<linearGradient id="paint4_linear_39_204" x1="8771.84" y1="2320.87" x2="5345.85" y2="6076.84" gradientUnits="userSpaceOnUse">
<stop stop-color="#78B46A"/>
<stop offset="0.03" stop-color="#7F3500"/>
<stop offset="1" stop-color="white"/>
</linearGradient>
<clipPath id="clip0_39_204">
<rect width="1062" height="1039" fill="white"/>
</clipPath>
<clipPath id="clip1_39_204">
<rect width="544.193" height="414.501" fill="white" transform="translate(516.708 411.202)"/>
</clipPath>
</defs>
</svg>
